<svg height="512" viewBox="0 0 64 64" width="512" xmlns="http://www.w3.org/2000/svg"><g id="money_&#xB7;_ecommerce_&#xB7;_shopping_&#xB7;_buy_&#xB7;_dollar" data-name="money &#xB7; ecommerce &#xB7; shopping &#xB7; buy &#xB7; dollar"><circle cx="43" cy="40" fill="#ee8700" r="18"/><circle cx="43" cy="40" fill="#ffa733" r="13"/><path d="m43 27a13.031 13.031 0 0 0 -1.5.094 12.992 12.992 0 0 1 0 25.812 13 13 0 1 0 1.5-25.906z" fill="#ff9811"/><circle cx="21" cy="24" fill="#ff9811" r="18"/><circle cx="21" cy="24" fill="#ffb655" r="13"/><path d="m21 11a13.031 13.031 0 0 0 -1.5.094 12.992 12.992 0 0 1 0 25.812 13 13 0 1 0 1.5-25.906z" fill="#ffa733"/><g fill="#231f20"><path d="m21 10a14 14 0 1 0 14 14 14.015 14.015 0 0 0 -14-14zm0 26a12 12 0 1 1 12-12 12.013 12.013 0 0 1 -12 12z"/><path d="m19 19h4a1 1 0 0 1 1 1 1 1 0 0 0 2 0 3 3 0 0 0 -3-3h-1v-2a1 1 0 0 0 -2 0v2h-1a3 3 0 0 0 -3 3v2a3 3 0 0 0 3 3h4a1 1 0 0 1 1 1v2a1 1 0 0 1 -1 1h-4a1 1 0 0 1 -1-1 1 1 0 0 0 -2 0 3 3 0 0 0 3 3h1v2a1 1 0 0 0 2 0v-2h1a3 3 0 0 0 3-3v-2a3 3 0 0 0 -3-3h-4a1 1 0 0 1 -1-1v-2a1 1 0 0 1 1-1z"/><path d="m43 21a18.184 18.184 0 0 0 -3.22.28 19.06 19.06 0 1 0 -15.56 21.43 18.988 18.988 0 1 0 18.78-21.71zm0 7a12 12 0 1 1 -11.99 12.12 19.015 19.015 0 0 0 8.41-11.56 11.747 11.747 0 0 1 3.58-.56zm-22 13a17 17 0 1 1 17-17 17.024 17.024 0 0 1 -17 17zm22 16a17.068 17.068 0 0 1 -16.82-14.73 19.18 19.18 0 0 0 2.88-1.09 14.028 14.028 0 1 0 10.78-14.81 20.351 20.351 0 0 0 .16-2.37c0-.24-.03-.46-.04-.7a16.988 16.988 0 1 1 3.04 33.7z"/><path d="m45 45h-4a1 1 0 0 1 -1-1 1 1 0 0 0 -2 0 3 3 0 0 0 3 3h1v2a1 1 0 0 0 2 0v-2h1a3 3 0 0 0 3-3v-2a3 3 0 0 0 -3-3h-4a1 1 0 0 1 -1-1v-2a1 1 0 0 1 1-1h4a1 1 0 0 1 1 1 1 1 0 0 0 2 0 3 3 0 0 0 -3-3h-1v-2a1 1 0 0 0 -2 0v2h-1a3 3 0 0 0 -3 3v2a3 3 0 0 0 3 3h4a1 1 0 0 1 1 1v2a1 1 0 0 1 -1 1z"/></g></g></svg>